<mxfile host="Electron" modified="2023-12-18T10:12:20.314Z" agent="Mozilla/5.0 (Macintosh; Intel Mac OS X 10_15_7) AppleWebKit/537.36 (KHTML, like Gecko) draw.io/21.6.1 Chrome/112.0.5615.204 Electron/24.6.1 Safari/537.36" etag="gA57WAoSh7Xoy2ilUt_a" version="21.6.1" type="device">
  <diagram name="Page-1" id="rJc4F7qCvjd_5PeE_hfM">
    <mxGraphModel dx="954" dy="615" grid="1" gridSize="10" guides="1" tooltips="1" connect="1" arrows="1" fold="1" page="1" pageScale="1" pageWidth="827" pageHeight="1169" math="0" shadow="0">
      <root>
        <mxCell id="0" />
        <mxCell id="1" parent="0" />
        <mxCell id="jQPttICwIMZAZeNeLwx2-1" value="" style="whiteSpace=wrap;html=1;aspect=fixed;" parent="1" vertex="1">
          <mxGeometry x="50" y="110" width="80" height="80" as="geometry" />
        </mxCell>
        <mxCell id="jQPttICwIMZAZeNeLwx2-2" value="" style="whiteSpace=wrap;html=1;aspect=fixed;" parent="1" vertex="1">
          <mxGeometry x="140" y="110" width="80" height="80" as="geometry" />
        </mxCell>
        <mxCell id="jQPttICwIMZAZeNeLwx2-3" value="" style="whiteSpace=wrap;html=1;aspect=fixed;" parent="1" vertex="1">
          <mxGeometry x="230" y="110" width="80" height="80" as="geometry" />
        </mxCell>
        <mxCell id="jQPttICwIMZAZeNeLwx2-4" value="" style="whiteSpace=wrap;html=1;aspect=fixed;" parent="1" vertex="1">
          <mxGeometry x="320" y="110" width="80" height="80" as="geometry" />
        </mxCell>
        <mxCell id="jQPttICwIMZAZeNeLwx2-5" value="" style="whiteSpace=wrap;html=1;aspect=fixed;" parent="1" vertex="1">
          <mxGeometry x="410" y="110" width="80" height="80" as="geometry" />
        </mxCell>
        <mxCell id="jQPttICwIMZAZeNeLwx2-6" value="" style="whiteSpace=wrap;html=1;aspect=fixed;" parent="1" vertex="1">
          <mxGeometry x="50" y="210" width="80" height="80" as="geometry" />
        </mxCell>
        <mxCell id="jQPttICwIMZAZeNeLwx2-7" value="" style="whiteSpace=wrap;html=1;aspect=fixed;" parent="1" vertex="1">
          <mxGeometry x="140" y="210" width="80" height="80" as="geometry" />
        </mxCell>
        <mxCell id="jQPttICwIMZAZeNeLwx2-8" value="" style="whiteSpace=wrap;html=1;aspect=fixed;" parent="1" vertex="1">
          <mxGeometry x="230" y="210" width="80" height="80" as="geometry" />
        </mxCell>
        <mxCell id="jQPttICwIMZAZeNeLwx2-9" value="" style="whiteSpace=wrap;html=1;aspect=fixed;" parent="1" vertex="1">
          <mxGeometry x="320" y="210" width="80" height="80" as="geometry" />
        </mxCell>
        <mxCell id="jQPttICwIMZAZeNeLwx2-10" value="" style="whiteSpace=wrap;html=1;aspect=fixed;" parent="1" vertex="1">
          <mxGeometry x="410" y="210" width="80" height="80" as="geometry" />
        </mxCell>
        <mxCell id="jQPttICwIMZAZeNeLwx2-11" value="" style="whiteSpace=wrap;html=1;aspect=fixed;" parent="1" vertex="1">
          <mxGeometry x="50" y="320" width="80" height="80" as="geometry" />
        </mxCell>
        <mxCell id="jQPttICwIMZAZeNeLwx2-12" value="" style="whiteSpace=wrap;html=1;aspect=fixed;" parent="1" vertex="1">
          <mxGeometry x="140" y="320" width="80" height="80" as="geometry" />
        </mxCell>
        <mxCell id="jQPttICwIMZAZeNeLwx2-13" value="" style="whiteSpace=wrap;html=1;aspect=fixed;" parent="1" vertex="1">
          <mxGeometry x="230" y="320" width="80" height="80" as="geometry" />
        </mxCell>
        <mxCell id="jQPttICwIMZAZeNeLwx2-14" value="" style="whiteSpace=wrap;html=1;aspect=fixed;" parent="1" vertex="1">
          <mxGeometry x="320" y="320" width="80" height="80" as="geometry" />
        </mxCell>
        <mxCell id="jQPttICwIMZAZeNeLwx2-15" value="" style="whiteSpace=wrap;html=1;aspect=fixed;" parent="1" vertex="1">
          <mxGeometry x="410" y="320" width="80" height="80" as="geometry" />
        </mxCell>
        <mxCell id="jQPttICwIMZAZeNeLwx2-16" value="" style="whiteSpace=wrap;html=1;aspect=fixed;" parent="1" vertex="1">
          <mxGeometry x="50" y="420" width="80" height="80" as="geometry" />
        </mxCell>
        <mxCell id="jQPttICwIMZAZeNeLwx2-17" value="" style="whiteSpace=wrap;html=1;aspect=fixed;" parent="1" vertex="1">
          <mxGeometry x="140" y="420" width="80" height="80" as="geometry" />
        </mxCell>
        <mxCell id="jQPttICwIMZAZeNeLwx2-18" value="" style="whiteSpace=wrap;html=1;aspect=fixed;" parent="1" vertex="1">
          <mxGeometry x="230" y="420" width="80" height="80" as="geometry" />
        </mxCell>
        <mxCell id="jQPttICwIMZAZeNeLwx2-19" value="" style="whiteSpace=wrap;html=1;aspect=fixed;" parent="1" vertex="1">
          <mxGeometry x="320" y="420" width="80" height="80" as="geometry" />
        </mxCell>
        <mxCell id="jQPttICwIMZAZeNeLwx2-21" value="" style="whiteSpace=wrap;html=1;aspect=fixed;" parent="1" vertex="1">
          <mxGeometry x="650" y="110" width="80" height="80" as="geometry" />
        </mxCell>
        <mxCell id="jQPttICwIMZAZeNeLwx2-22" value="" style="whiteSpace=wrap;html=1;aspect=fixed;" parent="1" vertex="1">
          <mxGeometry x="740" y="110" width="80" height="80" as="geometry" />
        </mxCell>
        <mxCell id="jQPttICwIMZAZeNeLwx2-23" value="" style="whiteSpace=wrap;html=1;aspect=fixed;" parent="1" vertex="1">
          <mxGeometry x="830" y="110" width="80" height="80" as="geometry" />
        </mxCell>
        <mxCell id="jQPttICwIMZAZeNeLwx2-24" value="" style="whiteSpace=wrap;html=1;aspect=fixed;" parent="1" vertex="1">
          <mxGeometry x="920" y="110" width="80" height="80" as="geometry" />
        </mxCell>
        <mxCell id="jQPttICwIMZAZeNeLwx2-25" value="" style="whiteSpace=wrap;html=1;aspect=fixed;" parent="1" vertex="1">
          <mxGeometry x="1010" y="110" width="80" height="80" as="geometry" />
        </mxCell>
        <mxCell id="jQPttICwIMZAZeNeLwx2-26" value="" style="whiteSpace=wrap;html=1;aspect=fixed;" parent="1" vertex="1">
          <mxGeometry x="650" y="210" width="80" height="80" as="geometry" />
        </mxCell>
        <mxCell id="jQPttICwIMZAZeNeLwx2-27" value="" style="whiteSpace=wrap;html=1;aspect=fixed;" parent="1" vertex="1">
          <mxGeometry x="740" y="210" width="80" height="80" as="geometry" />
        </mxCell>
        <mxCell id="jQPttICwIMZAZeNeLwx2-28" value="" style="whiteSpace=wrap;html=1;aspect=fixed;" parent="1" vertex="1">
          <mxGeometry x="830" y="210" width="80" height="80" as="geometry" />
        </mxCell>
        <mxCell id="jQPttICwIMZAZeNeLwx2-29" value="" style="whiteSpace=wrap;html=1;aspect=fixed;" parent="1" vertex="1">
          <mxGeometry x="920" y="210" width="80" height="80" as="geometry" />
        </mxCell>
        <mxCell id="jQPttICwIMZAZeNeLwx2-30" value="" style="whiteSpace=wrap;html=1;aspect=fixed;" parent="1" vertex="1">
          <mxGeometry x="1010" y="210" width="80" height="80" as="geometry" />
        </mxCell>
        <mxCell id="jQPttICwIMZAZeNeLwx2-32" value="" style="whiteSpace=wrap;html=1;aspect=fixed;" parent="1" vertex="1">
          <mxGeometry x="740" y="320" width="80" height="80" as="geometry" />
        </mxCell>
        <mxCell id="jQPttICwIMZAZeNeLwx2-33" value="" style="whiteSpace=wrap;html=1;aspect=fixed;" parent="1" vertex="1">
          <mxGeometry x="830" y="320" width="80" height="80" as="geometry" />
        </mxCell>
        <mxCell id="jQPttICwIMZAZeNeLwx2-34" value="" style="whiteSpace=wrap;html=1;aspect=fixed;" parent="1" vertex="1">
          <mxGeometry x="920" y="320" width="80" height="80" as="geometry" />
        </mxCell>
        <mxCell id="jQPttICwIMZAZeNeLwx2-35" value="" style="whiteSpace=wrap;html=1;aspect=fixed;" parent="1" vertex="1">
          <mxGeometry x="1010" y="320" width="80" height="80" as="geometry" />
        </mxCell>
        <mxCell id="jQPttICwIMZAZeNeLwx2-36" value="" style="whiteSpace=wrap;html=1;aspect=fixed;" parent="1" vertex="1">
          <mxGeometry x="650" y="420" width="80" height="80" as="geometry" />
        </mxCell>
        <mxCell id="jQPttICwIMZAZeNeLwx2-37" value="" style="whiteSpace=wrap;html=1;aspect=fixed;" parent="1" vertex="1">
          <mxGeometry x="740" y="420" width="80" height="80" as="geometry" />
        </mxCell>
        <mxCell id="jQPttICwIMZAZeNeLwx2-38" value="" style="whiteSpace=wrap;html=1;aspect=fixed;" parent="1" vertex="1">
          <mxGeometry x="830" y="420" width="80" height="80" as="geometry" />
        </mxCell>
        <mxCell id="jQPttICwIMZAZeNeLwx2-39" value="" style="whiteSpace=wrap;html=1;aspect=fixed;" parent="1" vertex="1">
          <mxGeometry x="920" y="420" width="80" height="80" as="geometry" />
        </mxCell>
        <mxCell id="jQPttICwIMZAZeNeLwx2-40" value="" style="whiteSpace=wrap;html=1;aspect=fixed;" parent="1" vertex="1">
          <mxGeometry x="1010" y="420" width="80" height="80" as="geometry" />
        </mxCell>
        <mxCell id="jQPttICwIMZAZeNeLwx2-41" value="" style="whiteSpace=wrap;html=1;aspect=fixed;" parent="1" vertex="1">
          <mxGeometry x="50" y="520" width="80" height="80" as="geometry" />
        </mxCell>
        <mxCell id="jQPttICwIMZAZeNeLwx2-42" value="" style="whiteSpace=wrap;html=1;aspect=fixed;" parent="1" vertex="1">
          <mxGeometry x="140" y="520" width="80" height="80" as="geometry" />
        </mxCell>
        <mxCell id="jQPttICwIMZAZeNeLwx2-43" value="" style="whiteSpace=wrap;html=1;aspect=fixed;" parent="1" vertex="1">
          <mxGeometry x="230" y="520" width="80" height="80" as="geometry" />
        </mxCell>
        <mxCell id="jQPttICwIMZAZeNeLwx2-44" value="" style="whiteSpace=wrap;html=1;aspect=fixed;" parent="1" vertex="1">
          <mxGeometry x="320" y="520" width="80" height="80" as="geometry" />
        </mxCell>
        <mxCell id="jQPttICwIMZAZeNeLwx2-45" value="" style="whiteSpace=wrap;html=1;aspect=fixed;" parent="1" vertex="1">
          <mxGeometry x="410" y="520" width="80" height="80" as="geometry" />
        </mxCell>
        <mxCell id="jQPttICwIMZAZeNeLwx2-46" value="" style="whiteSpace=wrap;html=1;aspect=fixed;" parent="1" vertex="1">
          <mxGeometry x="650" y="520" width="80" height="80" as="geometry" />
        </mxCell>
        <mxCell id="jQPttICwIMZAZeNeLwx2-47" value="" style="whiteSpace=wrap;html=1;aspect=fixed;" parent="1" vertex="1">
          <mxGeometry x="740" y="520" width="80" height="80" as="geometry" />
        </mxCell>
        <mxCell id="jQPttICwIMZAZeNeLwx2-48" value="" style="whiteSpace=wrap;html=1;aspect=fixed;" parent="1" vertex="1">
          <mxGeometry x="830" y="520" width="80" height="80" as="geometry" />
        </mxCell>
        <mxCell id="jQPttICwIMZAZeNeLwx2-49" value="" style="whiteSpace=wrap;html=1;aspect=fixed;" parent="1" vertex="1">
          <mxGeometry x="920" y="520" width="80" height="80" as="geometry" />
        </mxCell>
        <mxCell id="jQPttICwIMZAZeNeLwx2-50" value="" style="whiteSpace=wrap;html=1;aspect=fixed;" parent="1" vertex="1">
          <mxGeometry x="1010" y="520" width="80" height="80" as="geometry" />
        </mxCell>
        <mxCell id="jQPttICwIMZAZeNeLwx2-51" value="" style="whiteSpace=wrap;html=1;aspect=fixed;" parent="1" vertex="1">
          <mxGeometry x="50" y="620" width="80" height="80" as="geometry" />
        </mxCell>
        <mxCell id="jQPttICwIMZAZeNeLwx2-52" value="" style="whiteSpace=wrap;html=1;aspect=fixed;" parent="1" vertex="1">
          <mxGeometry x="140" y="620" width="80" height="80" as="geometry" />
        </mxCell>
        <mxCell id="jQPttICwIMZAZeNeLwx2-53" value="" style="whiteSpace=wrap;html=1;aspect=fixed;" parent="1" vertex="1">
          <mxGeometry x="230" y="620" width="80" height="80" as="geometry" />
        </mxCell>
        <mxCell id="jQPttICwIMZAZeNeLwx2-54" value="" style="whiteSpace=wrap;html=1;aspect=fixed;" parent="1" vertex="1">
          <mxGeometry x="320" y="620" width="80" height="80" as="geometry" />
        </mxCell>
        <mxCell id="jQPttICwIMZAZeNeLwx2-55" value="" style="whiteSpace=wrap;html=1;aspect=fixed;" parent="1" vertex="1">
          <mxGeometry x="410" y="620" width="80" height="80" as="geometry" />
        </mxCell>
        <mxCell id="jQPttICwIMZAZeNeLwx2-56" value="" style="whiteSpace=wrap;html=1;aspect=fixed;" parent="1" vertex="1">
          <mxGeometry x="650" y="620" width="80" height="80" as="geometry" />
        </mxCell>
        <mxCell id="jQPttICwIMZAZeNeLwx2-57" value="" style="whiteSpace=wrap;html=1;aspect=fixed;" parent="1" vertex="1">
          <mxGeometry x="740" y="620" width="80" height="80" as="geometry" />
        </mxCell>
        <mxCell id="jQPttICwIMZAZeNeLwx2-58" value="" style="whiteSpace=wrap;html=1;aspect=fixed;" parent="1" vertex="1">
          <mxGeometry x="830" y="620" width="80" height="80" as="geometry" />
        </mxCell>
        <mxCell id="jQPttICwIMZAZeNeLwx2-59" value="" style="whiteSpace=wrap;html=1;aspect=fixed;" parent="1" vertex="1">
          <mxGeometry x="920" y="620" width="80" height="80" as="geometry" />
        </mxCell>
        <mxCell id="jQPttICwIMZAZeNeLwx2-60" value="" style="whiteSpace=wrap;html=1;aspect=fixed;" parent="1" vertex="1">
          <mxGeometry x="1010" y="620" width="80" height="80" as="geometry" />
        </mxCell>
        <mxCell id="jQPttICwIMZAZeNeLwx2-61" value="" style="whiteSpace=wrap;html=1;aspect=fixed;" parent="1" vertex="1">
          <mxGeometry x="50" y="720" width="80" height="80" as="geometry" />
        </mxCell>
        <mxCell id="jQPttICwIMZAZeNeLwx2-62" value="" style="whiteSpace=wrap;html=1;aspect=fixed;" parent="1" vertex="1">
          <mxGeometry x="140" y="720" width="80" height="80" as="geometry" />
        </mxCell>
        <mxCell id="jQPttICwIMZAZeNeLwx2-63" value="" style="whiteSpace=wrap;html=1;aspect=fixed;" parent="1" vertex="1">
          <mxGeometry x="230" y="720" width="80" height="80" as="geometry" />
        </mxCell>
        <mxCell id="jQPttICwIMZAZeNeLwx2-64" value="" style="whiteSpace=wrap;html=1;aspect=fixed;" parent="1" vertex="1">
          <mxGeometry x="320" y="720" width="80" height="80" as="geometry" />
        </mxCell>
        <mxCell id="jQPttICwIMZAZeNeLwx2-67" value="" style="whiteSpace=wrap;html=1;aspect=fixed;" parent="1" vertex="1">
          <mxGeometry x="740" y="720" width="80" height="80" as="geometry" />
        </mxCell>
        <mxCell id="jQPttICwIMZAZeNeLwx2-68" value="" style="whiteSpace=wrap;html=1;aspect=fixed;" parent="1" vertex="1">
          <mxGeometry x="830" y="720" width="80" height="80" as="geometry" />
        </mxCell>
        <mxCell id="jQPttICwIMZAZeNeLwx2-69" value="" style="whiteSpace=wrap;html=1;aspect=fixed;" parent="1" vertex="1">
          <mxGeometry x="920" y="720" width="80" height="80" as="geometry" />
        </mxCell>
        <mxCell id="jQPttICwIMZAZeNeLwx2-70" value="" style="whiteSpace=wrap;html=1;aspect=fixed;" parent="1" vertex="1">
          <mxGeometry x="1010" y="720" width="80" height="80" as="geometry" />
        </mxCell>
        <mxCell id="jQPttICwIMZAZeNeLwx2-71" value="" style="whiteSpace=wrap;html=1;aspect=fixed;" parent="1" vertex="1">
          <mxGeometry x="50" y="820" width="80" height="80" as="geometry" />
        </mxCell>
        <mxCell id="jQPttICwIMZAZeNeLwx2-72" value="" style="whiteSpace=wrap;html=1;aspect=fixed;" parent="1" vertex="1">
          <mxGeometry x="140" y="820" width="80" height="80" as="geometry" />
        </mxCell>
        <mxCell id="jQPttICwIMZAZeNeLwx2-73" value="" style="whiteSpace=wrap;html=1;aspect=fixed;" parent="1" vertex="1">
          <mxGeometry x="230" y="820" width="80" height="80" as="geometry" />
        </mxCell>
        <mxCell id="jQPttICwIMZAZeNeLwx2-74" value="" style="whiteSpace=wrap;html=1;aspect=fixed;" parent="1" vertex="1">
          <mxGeometry x="320" y="820" width="80" height="80" as="geometry" />
        </mxCell>
        <mxCell id="jQPttICwIMZAZeNeLwx2-75" value="" style="whiteSpace=wrap;html=1;aspect=fixed;" parent="1" vertex="1">
          <mxGeometry x="410" y="820" width="80" height="80" as="geometry" />
        </mxCell>
        <mxCell id="jQPttICwIMZAZeNeLwx2-76" value="" style="whiteSpace=wrap;html=1;aspect=fixed;" parent="1" vertex="1">
          <mxGeometry x="650" y="820" width="80" height="80" as="geometry" />
        </mxCell>
        <mxCell id="jQPttICwIMZAZeNeLwx2-77" value="" style="whiteSpace=wrap;html=1;aspect=fixed;" parent="1" vertex="1">
          <mxGeometry x="740" y="820" width="80" height="80" as="geometry" />
        </mxCell>
        <mxCell id="jQPttICwIMZAZeNeLwx2-78" value="" style="whiteSpace=wrap;html=1;aspect=fixed;" parent="1" vertex="1">
          <mxGeometry x="830" y="820" width="80" height="80" as="geometry" />
        </mxCell>
        <mxCell id="jQPttICwIMZAZeNeLwx2-79" value="" style="whiteSpace=wrap;html=1;aspect=fixed;" parent="1" vertex="1">
          <mxGeometry x="920" y="820" width="80" height="80" as="geometry" />
        </mxCell>
        <mxCell id="jQPttICwIMZAZeNeLwx2-80" value="" style="whiteSpace=wrap;html=1;aspect=fixed;" parent="1" vertex="1">
          <mxGeometry x="1010" y="820" width="80" height="80" as="geometry" />
        </mxCell>
        <mxCell id="jQPttICwIMZAZeNeLwx2-81" value="" style="whiteSpace=wrap;html=1;aspect=fixed;" parent="1" vertex="1">
          <mxGeometry x="50" y="920" width="80" height="80" as="geometry" />
        </mxCell>
        <mxCell id="jQPttICwIMZAZeNeLwx2-82" value="" style="whiteSpace=wrap;html=1;aspect=fixed;" parent="1" vertex="1">
          <mxGeometry x="140" y="920" width="80" height="80" as="geometry" />
        </mxCell>
        <mxCell id="jQPttICwIMZAZeNeLwx2-83" value="" style="whiteSpace=wrap;html=1;aspect=fixed;" parent="1" vertex="1">
          <mxGeometry x="230" y="920" width="80" height="80" as="geometry" />
        </mxCell>
        <mxCell id="jQPttICwIMZAZeNeLwx2-84" value="" style="whiteSpace=wrap;html=1;aspect=fixed;" parent="1" vertex="1">
          <mxGeometry x="320" y="920" width="80" height="80" as="geometry" />
        </mxCell>
        <mxCell id="jQPttICwIMZAZeNeLwx2-85" value="" style="whiteSpace=wrap;html=1;aspect=fixed;" parent="1" vertex="1">
          <mxGeometry x="410" y="920" width="80" height="80" as="geometry" />
        </mxCell>
        <mxCell id="jQPttICwIMZAZeNeLwx2-86" value="" style="whiteSpace=wrap;html=1;aspect=fixed;" parent="1" vertex="1">
          <mxGeometry x="650" y="920" width="80" height="80" as="geometry" />
        </mxCell>
        <mxCell id="jQPttICwIMZAZeNeLwx2-87" value="" style="whiteSpace=wrap;html=1;aspect=fixed;" parent="1" vertex="1">
          <mxGeometry x="740" y="920" width="80" height="80" as="geometry" />
        </mxCell>
        <mxCell id="jQPttICwIMZAZeNeLwx2-88" value="" style="whiteSpace=wrap;html=1;aspect=fixed;" parent="1" vertex="1">
          <mxGeometry x="830" y="920" width="80" height="80" as="geometry" />
        </mxCell>
        <mxCell id="jQPttICwIMZAZeNeLwx2-89" value="" style="whiteSpace=wrap;html=1;aspect=fixed;" parent="1" vertex="1">
          <mxGeometry x="920" y="920" width="80" height="80" as="geometry" />
        </mxCell>
        <mxCell id="jQPttICwIMZAZeNeLwx2-90" value="" style="whiteSpace=wrap;html=1;aspect=fixed;" parent="1" vertex="1">
          <mxGeometry x="1010" y="920" width="80" height="80" as="geometry" />
        </mxCell>
        <mxCell id="yirKqtg0mQYhuLJ1jX_r-1" value="&lt;b&gt;&lt;font style=&quot;font-size: 20px;&quot;&gt;lab 2.05&lt;/font&gt;&lt;/b&gt;" style="text;html=1;strokeColor=none;fillColor=none;align=center;verticalAlign=middle;whiteSpace=wrap;rounded=0;" vertex="1" parent="1">
          <mxGeometry x="500" y="40" width="130" height="30" as="geometry" />
        </mxCell>
        <mxCell id="yirKqtg0mQYhuLJ1jX_r-2" value="&lt;b style=&quot;&quot;&gt;&lt;font style=&quot;font-size: 11px;&quot;&gt;machineID: 1&lt;/font&gt;&lt;/b&gt;" style="text;html=1;strokeColor=none;fillColor=none;align=center;verticalAlign=middle;whiteSpace=wrap;rounded=0;" vertex="1" parent="1">
          <mxGeometry x="45" y="135" width="90" height="30" as="geometry" />
        </mxCell>
        <mxCell id="yirKqtg0mQYhuLJ1jX_r-3" value="&lt;b style=&quot;&quot;&gt;&lt;font style=&quot;font-size: 11px;&quot;&gt;machineID: 2&lt;/font&gt;&lt;/b&gt;" style="text;html=1;strokeColor=none;fillColor=none;align=center;verticalAlign=middle;whiteSpace=wrap;rounded=0;" vertex="1" parent="1">
          <mxGeometry x="135" y="135" width="90" height="30" as="geometry" />
        </mxCell>
        <mxCell id="yirKqtg0mQYhuLJ1jX_r-4" value="&lt;b style=&quot;&quot;&gt;&lt;font style=&quot;font-size: 11px;&quot;&gt;machineID: 3&lt;/font&gt;&lt;/b&gt;" style="text;html=1;strokeColor=none;fillColor=none;align=center;verticalAlign=middle;whiteSpace=wrap;rounded=0;" vertex="1" parent="1">
          <mxGeometry x="225" y="135" width="90" height="30" as="geometry" />
        </mxCell>
        <mxCell id="yirKqtg0mQYhuLJ1jX_r-5" value="&lt;b style=&quot;&quot;&gt;&lt;font style=&quot;font-size: 11px;&quot;&gt;machineID: 4&lt;/font&gt;&lt;/b&gt;" style="text;html=1;strokeColor=none;fillColor=none;align=center;verticalAlign=middle;whiteSpace=wrap;rounded=0;" vertex="1" parent="1">
          <mxGeometry x="315" y="135" width="90" height="30" as="geometry" />
        </mxCell>
        <mxCell id="yirKqtg0mQYhuLJ1jX_r-6" value="&lt;b style=&quot;&quot;&gt;&lt;font style=&quot;font-size: 11px;&quot;&gt;machineID: 5&lt;/font&gt;&lt;/b&gt;" style="text;html=1;strokeColor=none;fillColor=none;align=center;verticalAlign=middle;whiteSpace=wrap;rounded=0;" vertex="1" parent="1">
          <mxGeometry x="405" y="135" width="90" height="30" as="geometry" />
        </mxCell>
        <mxCell id="yirKqtg0mQYhuLJ1jX_r-7" value="&lt;b style=&quot;&quot;&gt;&lt;font style=&quot;font-size: 11px;&quot;&gt;machineID: 6&lt;/font&gt;&lt;/b&gt;" style="text;html=1;strokeColor=none;fillColor=none;align=center;verticalAlign=middle;whiteSpace=wrap;rounded=0;" vertex="1" parent="1">
          <mxGeometry x="645" y="135" width="90" height="30" as="geometry" />
        </mxCell>
        <mxCell id="yirKqtg0mQYhuLJ1jX_r-8" value="&lt;b style=&quot;&quot;&gt;&lt;font style=&quot;font-size: 11px;&quot;&gt;machineID: 7&lt;/font&gt;&lt;/b&gt;" style="text;html=1;strokeColor=none;fillColor=none;align=center;verticalAlign=middle;whiteSpace=wrap;rounded=0;" vertex="1" parent="1">
          <mxGeometry x="735" y="135" width="90" height="30" as="geometry" />
        </mxCell>
        <mxCell id="yirKqtg0mQYhuLJ1jX_r-9" value="&lt;b style=&quot;&quot;&gt;&lt;font style=&quot;font-size: 11px;&quot;&gt;machineID: 8&lt;/font&gt;&lt;/b&gt;" style="text;html=1;strokeColor=none;fillColor=none;align=center;verticalAlign=middle;whiteSpace=wrap;rounded=0;" vertex="1" parent="1">
          <mxGeometry x="825" y="135" width="90" height="30" as="geometry" />
        </mxCell>
        <mxCell id="yirKqtg0mQYhuLJ1jX_r-10" value="&lt;b style=&quot;&quot;&gt;&lt;font style=&quot;font-size: 11px;&quot;&gt;machineID: 9&lt;/font&gt;&lt;/b&gt;" style="text;html=1;strokeColor=none;fillColor=none;align=center;verticalAlign=middle;whiteSpace=wrap;rounded=0;" vertex="1" parent="1">
          <mxGeometry x="915" y="135" width="90" height="30" as="geometry" />
        </mxCell>
        <mxCell id="yirKqtg0mQYhuLJ1jX_r-11" value="&lt;b style=&quot;&quot;&gt;&lt;font style=&quot;font-size: 11px;&quot;&gt;machineID: 10&lt;/font&gt;&lt;/b&gt;" style="text;html=1;strokeColor=none;fillColor=none;align=center;verticalAlign=middle;whiteSpace=wrap;rounded=0;" vertex="1" parent="1">
          <mxGeometry x="1005" y="135" width="90" height="30" as="geometry" />
        </mxCell>
        <mxCell id="yirKqtg0mQYhuLJ1jX_r-12" value="&lt;b style=&quot;&quot;&gt;&lt;font style=&quot;font-size: 11px;&quot;&gt;machineID: 11&lt;/font&gt;&lt;/b&gt;" style="text;html=1;strokeColor=none;fillColor=none;align=center;verticalAlign=middle;whiteSpace=wrap;rounded=0;" vertex="1" parent="1">
          <mxGeometry x="45" y="235" width="90" height="30" as="geometry" />
        </mxCell>
        <mxCell id="yirKqtg0mQYhuLJ1jX_r-13" value="&lt;b style=&quot;&quot;&gt;&lt;font style=&quot;font-size: 11px;&quot;&gt;machineID: 12&lt;/font&gt;&lt;/b&gt;" style="text;html=1;strokeColor=none;fillColor=none;align=center;verticalAlign=middle;whiteSpace=wrap;rounded=0;" vertex="1" parent="1">
          <mxGeometry x="135" y="235" width="90" height="30" as="geometry" />
        </mxCell>
        <mxCell id="yirKqtg0mQYhuLJ1jX_r-14" value="&lt;b style=&quot;&quot;&gt;&lt;font style=&quot;font-size: 11px;&quot;&gt;machineID: 13&lt;/font&gt;&lt;/b&gt;" style="text;html=1;strokeColor=none;fillColor=none;align=center;verticalAlign=middle;whiteSpace=wrap;rounded=0;" vertex="1" parent="1">
          <mxGeometry x="225" y="235" width="90" height="30" as="geometry" />
        </mxCell>
        <mxCell id="yirKqtg0mQYhuLJ1jX_r-15" value="&lt;b style=&quot;&quot;&gt;&lt;font style=&quot;font-size: 11px;&quot;&gt;machineID: 14&lt;/font&gt;&lt;/b&gt;" style="text;html=1;strokeColor=none;fillColor=none;align=center;verticalAlign=middle;whiteSpace=wrap;rounded=0;" vertex="1" parent="1">
          <mxGeometry x="315" y="235" width="90" height="30" as="geometry" />
        </mxCell>
        <mxCell id="yirKqtg0mQYhuLJ1jX_r-16" value="&lt;b style=&quot;&quot;&gt;&lt;font style=&quot;font-size: 11px;&quot;&gt;machineID: 15&lt;/font&gt;&lt;/b&gt;" style="text;html=1;strokeColor=none;fillColor=none;align=center;verticalAlign=middle;whiteSpace=wrap;rounded=0;" vertex="1" parent="1">
          <mxGeometry x="405" y="235" width="90" height="30" as="geometry" />
        </mxCell>
        <mxCell id="yirKqtg0mQYhuLJ1jX_r-17" value="&lt;b style=&quot;&quot;&gt;&lt;font style=&quot;font-size: 11px;&quot;&gt;machineID: 16&lt;/font&gt;&lt;/b&gt;" style="text;html=1;strokeColor=none;fillColor=none;align=center;verticalAlign=middle;whiteSpace=wrap;rounded=0;" vertex="1" parent="1">
          <mxGeometry x="645" y="235" width="90" height="30" as="geometry" />
        </mxCell>
        <mxCell id="yirKqtg0mQYhuLJ1jX_r-18" value="&lt;b style=&quot;&quot;&gt;&lt;font style=&quot;font-size: 11px;&quot;&gt;machineID: 21&lt;/font&gt;&lt;/b&gt;" style="text;html=1;strokeColor=none;fillColor=none;align=center;verticalAlign=middle;whiteSpace=wrap;rounded=0;" vertex="1" parent="1">
          <mxGeometry x="45" y="345" width="90" height="30" as="geometry" />
        </mxCell>
        <mxCell id="yirKqtg0mQYhuLJ1jX_r-19" value="&lt;b style=&quot;&quot;&gt;&lt;font style=&quot;font-size: 11px;&quot;&gt;machineID: 22&lt;/font&gt;&lt;/b&gt;" style="text;html=1;strokeColor=none;fillColor=none;align=center;verticalAlign=middle;whiteSpace=wrap;rounded=0;" vertex="1" parent="1">
          <mxGeometry x="135" y="345" width="90" height="30" as="geometry" />
        </mxCell>
        <mxCell id="yirKqtg0mQYhuLJ1jX_r-20" value="&lt;b style=&quot;&quot;&gt;&lt;font style=&quot;font-size: 11px;&quot;&gt;machineID: 23&lt;/font&gt;&lt;/b&gt;" style="text;html=1;strokeColor=none;fillColor=none;align=center;verticalAlign=middle;whiteSpace=wrap;rounded=0;" vertex="1" parent="1">
          <mxGeometry x="225" y="345" width="90" height="30" as="geometry" />
        </mxCell>
        <mxCell id="yirKqtg0mQYhuLJ1jX_r-21" value="&lt;b style=&quot;&quot;&gt;&lt;font style=&quot;font-size: 11px;&quot;&gt;machineID: 24&lt;/font&gt;&lt;/b&gt;" style="text;html=1;strokeColor=none;fillColor=none;align=center;verticalAlign=middle;whiteSpace=wrap;rounded=0;" vertex="1" parent="1">
          <mxGeometry x="315" y="345" width="90" height="30" as="geometry" />
        </mxCell>
        <mxCell id="yirKqtg0mQYhuLJ1jX_r-22" value="&lt;b style=&quot;&quot;&gt;&lt;font style=&quot;font-size: 11px;&quot;&gt;machineID:25&lt;/font&gt;&lt;/b&gt;" style="text;html=1;strokeColor=none;fillColor=none;align=center;verticalAlign=middle;whiteSpace=wrap;rounded=0;" vertex="1" parent="1">
          <mxGeometry x="405" y="345" width="90" height="30" as="geometry" />
        </mxCell>
        <mxCell id="yirKqtg0mQYhuLJ1jX_r-23" value="&lt;b style=&quot;&quot;&gt;&lt;font style=&quot;font-size: 11px;&quot;&gt;machineID: 17&lt;/font&gt;&lt;/b&gt;" style="text;html=1;strokeColor=none;fillColor=none;align=center;verticalAlign=middle;whiteSpace=wrap;rounded=0;" vertex="1" parent="1">
          <mxGeometry x="735" y="235" width="90" height="30" as="geometry" />
        </mxCell>
        <mxCell id="yirKqtg0mQYhuLJ1jX_r-24" value="&lt;b style=&quot;&quot;&gt;&lt;font style=&quot;font-size: 11px;&quot;&gt;machineID: 26&lt;/font&gt;&lt;/b&gt;" style="text;html=1;strokeColor=none;fillColor=none;align=center;verticalAlign=middle;whiteSpace=wrap;rounded=0;" vertex="1" parent="1">
          <mxGeometry x="735" y="350" width="90" height="30" as="geometry" />
        </mxCell>
        <mxCell id="yirKqtg0mQYhuLJ1jX_r-25" value="&lt;b style=&quot;&quot;&gt;&lt;font style=&quot;font-size: 11px;&quot;&gt;machineID: 18&lt;/font&gt;&lt;/b&gt;" style="text;html=1;strokeColor=none;fillColor=none;align=center;verticalAlign=middle;whiteSpace=wrap;rounded=0;" vertex="1" parent="1">
          <mxGeometry x="825" y="235" width="90" height="30" as="geometry" />
        </mxCell>
        <mxCell id="yirKqtg0mQYhuLJ1jX_r-26" value="&lt;b style=&quot;&quot;&gt;&lt;font style=&quot;font-size: 11px;&quot;&gt;machineID: 19&lt;/font&gt;&lt;/b&gt;" style="text;html=1;strokeColor=none;fillColor=none;align=center;verticalAlign=middle;whiteSpace=wrap;rounded=0;" vertex="1" parent="1">
          <mxGeometry x="915" y="235" width="90" height="30" as="geometry" />
        </mxCell>
        <mxCell id="yirKqtg0mQYhuLJ1jX_r-27" value="&lt;b style=&quot;&quot;&gt;&lt;font style=&quot;font-size: 11px;&quot;&gt;machineID: 20&lt;/font&gt;&lt;/b&gt;" style="text;html=1;strokeColor=none;fillColor=none;align=center;verticalAlign=middle;whiteSpace=wrap;rounded=0;" vertex="1" parent="1">
          <mxGeometry x="1005" y="235" width="90" height="30" as="geometry" />
        </mxCell>
        <mxCell id="yirKqtg0mQYhuLJ1jX_r-28" value="&lt;b style=&quot;&quot;&gt;&lt;font style=&quot;font-size: 11px;&quot;&gt;machineID: 27&lt;/font&gt;&lt;/b&gt;" style="text;html=1;strokeColor=none;fillColor=none;align=center;verticalAlign=middle;whiteSpace=wrap;rounded=0;" vertex="1" parent="1">
          <mxGeometry x="825" y="350" width="90" height="30" as="geometry" />
        </mxCell>
        <mxCell id="yirKqtg0mQYhuLJ1jX_r-29" value="&lt;b style=&quot;&quot;&gt;&lt;font style=&quot;font-size: 11px;&quot;&gt;machineID: 28&lt;/font&gt;&lt;/b&gt;" style="text;html=1;strokeColor=none;fillColor=none;align=center;verticalAlign=middle;whiteSpace=wrap;rounded=0;" vertex="1" parent="1">
          <mxGeometry x="915" y="350" width="90" height="30" as="geometry" />
        </mxCell>
        <mxCell id="yirKqtg0mQYhuLJ1jX_r-30" value="&lt;b style=&quot;&quot;&gt;&lt;font style=&quot;font-size: 11px;&quot;&gt;machineID: 29&lt;/font&gt;&lt;/b&gt;" style="text;html=1;strokeColor=none;fillColor=none;align=center;verticalAlign=middle;whiteSpace=wrap;rounded=0;" vertex="1" parent="1">
          <mxGeometry x="1005" y="350" width="90" height="30" as="geometry" />
        </mxCell>
        <mxCell id="yirKqtg0mQYhuLJ1jX_r-31" value="&lt;b style=&quot;&quot;&gt;&lt;font style=&quot;font-size: 11px;&quot;&gt;machineID: 30&lt;/font&gt;&lt;/b&gt;" style="text;html=1;strokeColor=none;fillColor=none;align=center;verticalAlign=middle;whiteSpace=wrap;rounded=0;" vertex="1" parent="1">
          <mxGeometry x="45" y="445" width="90" height="30" as="geometry" />
        </mxCell>
        <mxCell id="yirKqtg0mQYhuLJ1jX_r-32" value="&lt;b style=&quot;&quot;&gt;&lt;font style=&quot;font-size: 11px;&quot;&gt;machineID: 31&lt;/font&gt;&lt;/b&gt;" style="text;html=1;strokeColor=none;fillColor=none;align=center;verticalAlign=middle;whiteSpace=wrap;rounded=0;" vertex="1" parent="1">
          <mxGeometry x="135" y="445" width="90" height="30" as="geometry" />
        </mxCell>
        <mxCell id="yirKqtg0mQYhuLJ1jX_r-33" value="&lt;b style=&quot;&quot;&gt;&lt;font style=&quot;font-size: 11px;&quot;&gt;machineID: 32&lt;/font&gt;&lt;/b&gt;" style="text;html=1;strokeColor=none;fillColor=none;align=center;verticalAlign=middle;whiteSpace=wrap;rounded=0;" vertex="1" parent="1">
          <mxGeometry x="225" y="445" width="90" height="30" as="geometry" />
        </mxCell>
        <mxCell id="yirKqtg0mQYhuLJ1jX_r-34" value="&lt;b style=&quot;&quot;&gt;&lt;font style=&quot;font-size: 11px;&quot;&gt;machineID: 33&lt;/font&gt;&lt;/b&gt;" style="text;html=1;strokeColor=none;fillColor=none;align=center;verticalAlign=middle;whiteSpace=wrap;rounded=0;" vertex="1" parent="1">
          <mxGeometry x="315" y="445" width="90" height="30" as="geometry" />
        </mxCell>
        <mxCell id="yirKqtg0mQYhuLJ1jX_r-35" value="&lt;b style=&quot;&quot;&gt;&lt;font style=&quot;font-size: 11px;&quot;&gt;machineID: 34&lt;/font&gt;&lt;/b&gt;" style="text;html=1;strokeColor=none;fillColor=none;align=center;verticalAlign=middle;whiteSpace=wrap;rounded=0;" vertex="1" parent="1">
          <mxGeometry x="645" y="445" width="90" height="30" as="geometry" />
        </mxCell>
        <mxCell id="yirKqtg0mQYhuLJ1jX_r-36" value="&lt;b style=&quot;&quot;&gt;&lt;font style=&quot;font-size: 11px;&quot;&gt;machineID: 35&lt;/font&gt;&lt;/b&gt;" style="text;html=1;strokeColor=none;fillColor=none;align=center;verticalAlign=middle;whiteSpace=wrap;rounded=0;" vertex="1" parent="1">
          <mxGeometry x="735" y="445" width="90" height="30" as="geometry" />
        </mxCell>
        <mxCell id="yirKqtg0mQYhuLJ1jX_r-37" value="&lt;b style=&quot;&quot;&gt;&lt;font style=&quot;font-size: 11px;&quot;&gt;machineID: 36&lt;/font&gt;&lt;/b&gt;" style="text;html=1;strokeColor=none;fillColor=none;align=center;verticalAlign=middle;whiteSpace=wrap;rounded=0;" vertex="1" parent="1">
          <mxGeometry x="825" y="445" width="90" height="30" as="geometry" />
        </mxCell>
        <mxCell id="yirKqtg0mQYhuLJ1jX_r-38" value="&lt;b style=&quot;&quot;&gt;&lt;font style=&quot;font-size: 11px;&quot;&gt;machineID: 37&lt;/font&gt;&lt;/b&gt;" style="text;html=1;strokeColor=none;fillColor=none;align=center;verticalAlign=middle;whiteSpace=wrap;rounded=0;" vertex="1" parent="1">
          <mxGeometry x="915" y="445" width="90" height="30" as="geometry" />
        </mxCell>
        <mxCell id="yirKqtg0mQYhuLJ1jX_r-39" value="&lt;b style=&quot;&quot;&gt;&lt;font style=&quot;font-size: 11px;&quot;&gt;machineID: 38&lt;/font&gt;&lt;/b&gt;" style="text;html=1;strokeColor=none;fillColor=none;align=center;verticalAlign=middle;whiteSpace=wrap;rounded=0;" vertex="1" parent="1">
          <mxGeometry x="1005" y="445" width="90" height="30" as="geometry" />
        </mxCell>
        <mxCell id="yirKqtg0mQYhuLJ1jX_r-40" value="&lt;b style=&quot;&quot;&gt;&lt;font style=&quot;font-size: 11px;&quot;&gt;machineID: 39&lt;/font&gt;&lt;/b&gt;" style="text;html=1;strokeColor=none;fillColor=none;align=center;verticalAlign=middle;whiteSpace=wrap;rounded=0;" vertex="1" parent="1">
          <mxGeometry x="45" y="545" width="90" height="30" as="geometry" />
        </mxCell>
        <mxCell id="yirKqtg0mQYhuLJ1jX_r-42" value="&lt;b style=&quot;&quot;&gt;&lt;font style=&quot;font-size: 11px;&quot;&gt;machineID: 40&lt;/font&gt;&lt;/b&gt;" style="text;html=1;strokeColor=none;fillColor=none;align=center;verticalAlign=middle;whiteSpace=wrap;rounded=0;" vertex="1" parent="1">
          <mxGeometry x="135" y="545" width="90" height="30" as="geometry" />
        </mxCell>
        <mxCell id="yirKqtg0mQYhuLJ1jX_r-43" value="&lt;b style=&quot;&quot;&gt;&lt;font style=&quot;font-size: 11px;&quot;&gt;machineID: 41&lt;/font&gt;&lt;/b&gt;" style="text;html=1;strokeColor=none;fillColor=none;align=center;verticalAlign=middle;whiteSpace=wrap;rounded=0;" vertex="1" parent="1">
          <mxGeometry x="225" y="545" width="90" height="30" as="geometry" />
        </mxCell>
        <mxCell id="yirKqtg0mQYhuLJ1jX_r-44" value="&lt;b style=&quot;&quot;&gt;&lt;font style=&quot;font-size: 11px;&quot;&gt;machineID: 42&lt;/font&gt;&lt;/b&gt;" style="text;html=1;strokeColor=none;fillColor=none;align=center;verticalAlign=middle;whiteSpace=wrap;rounded=0;" vertex="1" parent="1">
          <mxGeometry x="315" y="545" width="90" height="30" as="geometry" />
        </mxCell>
        <mxCell id="yirKqtg0mQYhuLJ1jX_r-45" value="&lt;b style=&quot;&quot;&gt;&lt;font style=&quot;font-size: 11px;&quot;&gt;machineID: 43&lt;/font&gt;&lt;/b&gt;" style="text;html=1;strokeColor=none;fillColor=none;align=center;verticalAlign=middle;whiteSpace=wrap;rounded=0;" vertex="1" parent="1">
          <mxGeometry x="405" y="545" width="90" height="30" as="geometry" />
        </mxCell>
        <mxCell id="yirKqtg0mQYhuLJ1jX_r-46" value="&lt;b style=&quot;&quot;&gt;&lt;font style=&quot;font-size: 11px;&quot;&gt;machineID: 77&lt;/font&gt;&lt;/b&gt;" style="text;html=1;strokeColor=none;fillColor=none;align=center;verticalAlign=middle;whiteSpace=wrap;rounded=0;" vertex="1" parent="1">
          <mxGeometry x="45" y="945" width="90" height="30" as="geometry" />
        </mxCell>
        <mxCell id="yirKqtg0mQYhuLJ1jX_r-47" value="&lt;b style=&quot;&quot;&gt;&lt;font style=&quot;font-size: 11px;&quot;&gt;machineID: 78&lt;/font&gt;&lt;/b&gt;" style="text;html=1;strokeColor=none;fillColor=none;align=center;verticalAlign=middle;whiteSpace=wrap;rounded=0;" vertex="1" parent="1">
          <mxGeometry x="135" y="945" width="90" height="30" as="geometry" />
        </mxCell>
        <mxCell id="yirKqtg0mQYhuLJ1jX_r-48" value="&lt;b style=&quot;&quot;&gt;&lt;font style=&quot;font-size: 11px;&quot;&gt;machineID: 79&lt;/font&gt;&lt;/b&gt;" style="text;html=1;strokeColor=none;fillColor=none;align=center;verticalAlign=middle;whiteSpace=wrap;rounded=0;" vertex="1" parent="1">
          <mxGeometry x="225" y="945" width="90" height="30" as="geometry" />
        </mxCell>
        <mxCell id="yirKqtg0mQYhuLJ1jX_r-49" value="&lt;b style=&quot;&quot;&gt;&lt;font style=&quot;font-size: 11px;&quot;&gt;machineID: 80&lt;/font&gt;&lt;/b&gt;" style="text;html=1;strokeColor=none;fillColor=none;align=center;verticalAlign=middle;whiteSpace=wrap;rounded=0;" vertex="1" parent="1">
          <mxGeometry x="315" y="945" width="90" height="30" as="geometry" />
        </mxCell>
        <mxCell id="yirKqtg0mQYhuLJ1jX_r-50" value="&lt;b style=&quot;&quot;&gt;&lt;font style=&quot;font-size: 11px;&quot;&gt;machineID: 81&lt;/font&gt;&lt;/b&gt;" style="text;html=1;strokeColor=none;fillColor=none;align=center;verticalAlign=middle;whiteSpace=wrap;rounded=0;" vertex="1" parent="1">
          <mxGeometry x="405" y="945" width="90" height="30" as="geometry" />
        </mxCell>
        <mxCell id="yirKqtg0mQYhuLJ1jX_r-51" value="&lt;b style=&quot;&quot;&gt;&lt;font style=&quot;font-size: 11px;&quot;&gt;machineID: 67&lt;/font&gt;&lt;/b&gt;" style="text;html=1;strokeColor=none;fillColor=none;align=center;verticalAlign=middle;whiteSpace=wrap;rounded=0;" vertex="1" parent="1">
          <mxGeometry x="45" y="850" width="90" height="30" as="geometry" />
        </mxCell>
        <mxCell id="yirKqtg0mQYhuLJ1jX_r-52" value="&lt;b style=&quot;&quot;&gt;&lt;font style=&quot;font-size: 11px;&quot;&gt;machineID: 68&lt;/font&gt;&lt;/b&gt;" style="text;html=1;strokeColor=none;fillColor=none;align=center;verticalAlign=middle;whiteSpace=wrap;rounded=0;" vertex="1" parent="1">
          <mxGeometry x="135" y="850" width="90" height="30" as="geometry" />
        </mxCell>
        <mxCell id="yirKqtg0mQYhuLJ1jX_r-53" value="&lt;b style=&quot;&quot;&gt;&lt;font style=&quot;font-size: 11px;&quot;&gt;machineID: 69&lt;/font&gt;&lt;/b&gt;" style="text;html=1;strokeColor=none;fillColor=none;align=center;verticalAlign=middle;whiteSpace=wrap;rounded=0;" vertex="1" parent="1">
          <mxGeometry x="225" y="850" width="90" height="30" as="geometry" />
        </mxCell>
        <mxCell id="yirKqtg0mQYhuLJ1jX_r-54" value="&lt;b style=&quot;&quot;&gt;&lt;font style=&quot;font-size: 11px;&quot;&gt;machineID: 70&lt;/font&gt;&lt;/b&gt;" style="text;html=1;strokeColor=none;fillColor=none;align=center;verticalAlign=middle;whiteSpace=wrap;rounded=0;" vertex="1" parent="1">
          <mxGeometry x="315" y="850" width="90" height="30" as="geometry" />
        </mxCell>
        <mxCell id="yirKqtg0mQYhuLJ1jX_r-55" value="&lt;b style=&quot;&quot;&gt;&lt;font style=&quot;font-size: 11px;&quot;&gt;machineID: 71&lt;/font&gt;&lt;/b&gt;" style="text;html=1;strokeColor=none;fillColor=none;align=center;verticalAlign=middle;whiteSpace=wrap;rounded=0;" vertex="1" parent="1">
          <mxGeometry x="405" y="850" width="90" height="30" as="geometry" />
        </mxCell>
        <mxCell id="yirKqtg0mQYhuLJ1jX_r-56" value="&lt;b style=&quot;&quot;&gt;&lt;font style=&quot;font-size: 11px;&quot;&gt;machineID: 82&lt;/font&gt;&lt;/b&gt;" style="text;html=1;strokeColor=none;fillColor=none;align=center;verticalAlign=middle;whiteSpace=wrap;rounded=0;" vertex="1" parent="1">
          <mxGeometry x="645" y="945" width="90" height="30" as="geometry" />
        </mxCell>
        <mxCell id="yirKqtg0mQYhuLJ1jX_r-57" value="&lt;b style=&quot;&quot;&gt;&lt;font style=&quot;font-size: 11px;&quot;&gt;machineID: 83&lt;/font&gt;&lt;/b&gt;" style="text;html=1;strokeColor=none;fillColor=none;align=center;verticalAlign=middle;whiteSpace=wrap;rounded=0;" vertex="1" parent="1">
          <mxGeometry x="735" y="945" width="90" height="30" as="geometry" />
        </mxCell>
        <mxCell id="yirKqtg0mQYhuLJ1jX_r-58" value="&lt;b style=&quot;&quot;&gt;&lt;font style=&quot;font-size: 11px;&quot;&gt;machineID: 84&lt;/font&gt;&lt;/b&gt;" style="text;html=1;strokeColor=none;fillColor=none;align=center;verticalAlign=middle;whiteSpace=wrap;rounded=0;" vertex="1" parent="1">
          <mxGeometry x="825" y="945" width="90" height="30" as="geometry" />
        </mxCell>
        <mxCell id="yirKqtg0mQYhuLJ1jX_r-59" value="&lt;b style=&quot;&quot;&gt;&lt;font style=&quot;font-size: 11px;&quot;&gt;machineID: 85&lt;/font&gt;&lt;/b&gt;" style="text;html=1;strokeColor=none;fillColor=none;align=center;verticalAlign=middle;whiteSpace=wrap;rounded=0;" vertex="1" parent="1">
          <mxGeometry x="915" y="945" width="90" height="30" as="geometry" />
        </mxCell>
        <mxCell id="yirKqtg0mQYhuLJ1jX_r-60" value="&lt;b style=&quot;&quot;&gt;&lt;font style=&quot;font-size: 11px;&quot;&gt;machineID: 86&lt;/font&gt;&lt;/b&gt;" style="text;html=1;strokeColor=none;fillColor=none;align=center;verticalAlign=middle;whiteSpace=wrap;rounded=0;" vertex="1" parent="1">
          <mxGeometry x="1005" y="945" width="90" height="30" as="geometry" />
        </mxCell>
        <mxCell id="yirKqtg0mQYhuLJ1jX_r-61" value="&lt;b style=&quot;&quot;&gt;&lt;font style=&quot;font-size: 11px;&quot;&gt;machineID: 72&lt;/font&gt;&lt;/b&gt;" style="text;html=1;strokeColor=none;fillColor=none;align=center;verticalAlign=middle;whiteSpace=wrap;rounded=0;" vertex="1" parent="1">
          <mxGeometry x="645" y="845" width="90" height="30" as="geometry" />
        </mxCell>
        <mxCell id="yirKqtg0mQYhuLJ1jX_r-62" value="&lt;b style=&quot;&quot;&gt;&lt;font style=&quot;font-size: 11px;&quot;&gt;machineID: 73&lt;/font&gt;&lt;/b&gt;" style="text;html=1;strokeColor=none;fillColor=none;align=center;verticalAlign=middle;whiteSpace=wrap;rounded=0;" vertex="1" parent="1">
          <mxGeometry x="735" y="845" width="90" height="30" as="geometry" />
        </mxCell>
        <mxCell id="yirKqtg0mQYhuLJ1jX_r-63" value="&lt;b style=&quot;&quot;&gt;&lt;font style=&quot;font-size: 11px;&quot;&gt;machineID: 74&lt;/font&gt;&lt;/b&gt;" style="text;html=1;strokeColor=none;fillColor=none;align=center;verticalAlign=middle;whiteSpace=wrap;rounded=0;" vertex="1" parent="1">
          <mxGeometry x="825" y="845" width="90" height="30" as="geometry" />
        </mxCell>
        <mxCell id="yirKqtg0mQYhuLJ1jX_r-64" value="&lt;b style=&quot;&quot;&gt;&lt;font style=&quot;font-size: 11px;&quot;&gt;machineID: 75&lt;/font&gt;&lt;/b&gt;" style="text;html=1;strokeColor=none;fillColor=none;align=center;verticalAlign=middle;whiteSpace=wrap;rounded=0;" vertex="1" parent="1">
          <mxGeometry x="915" y="845" width="90" height="30" as="geometry" />
        </mxCell>
        <mxCell id="yirKqtg0mQYhuLJ1jX_r-65" value="&lt;b style=&quot;&quot;&gt;&lt;font style=&quot;font-size: 11px;&quot;&gt;machineID: 76&lt;/font&gt;&lt;/b&gt;" style="text;html=1;strokeColor=none;fillColor=none;align=center;verticalAlign=middle;whiteSpace=wrap;rounded=0;" vertex="1" parent="1">
          <mxGeometry x="1005" y="845" width="90" height="30" as="geometry" />
        </mxCell>
        <mxCell id="yirKqtg0mQYhuLJ1jX_r-66" value="&lt;b style=&quot;&quot;&gt;&lt;font style=&quot;font-size: 11px;&quot;&gt;machineID: 44&lt;/font&gt;&lt;/b&gt;" style="text;html=1;strokeColor=none;fillColor=none;align=center;verticalAlign=middle;whiteSpace=wrap;rounded=0;" vertex="1" parent="1">
          <mxGeometry x="645" y="545" width="90" height="30" as="geometry" />
        </mxCell>
        <mxCell id="yirKqtg0mQYhuLJ1jX_r-67" value="&lt;b style=&quot;&quot;&gt;&lt;font style=&quot;font-size: 11px;&quot;&gt;machineID: 45&lt;/font&gt;&lt;/b&gt;" style="text;html=1;strokeColor=none;fillColor=none;align=center;verticalAlign=middle;whiteSpace=wrap;rounded=0;" vertex="1" parent="1">
          <mxGeometry x="735" y="545" width="90" height="30" as="geometry" />
        </mxCell>
        <mxCell id="yirKqtg0mQYhuLJ1jX_r-68" value="&lt;b style=&quot;&quot;&gt;&lt;font style=&quot;font-size: 11px;&quot;&gt;machineID: 46&lt;/font&gt;&lt;/b&gt;" style="text;html=1;strokeColor=none;fillColor=none;align=center;verticalAlign=middle;whiteSpace=wrap;rounded=0;" vertex="1" parent="1">
          <mxGeometry x="825" y="545" width="90" height="30" as="geometry" />
        </mxCell>
        <mxCell id="yirKqtg0mQYhuLJ1jX_r-69" value="&lt;b style=&quot;&quot;&gt;&lt;font style=&quot;font-size: 11px;&quot;&gt;machineID: 47&lt;/font&gt;&lt;/b&gt;" style="text;html=1;strokeColor=none;fillColor=none;align=center;verticalAlign=middle;whiteSpace=wrap;rounded=0;" vertex="1" parent="1">
          <mxGeometry x="915" y="545" width="90" height="30" as="geometry" />
        </mxCell>
        <mxCell id="yirKqtg0mQYhuLJ1jX_r-70" value="&lt;b style=&quot;&quot;&gt;&lt;font style=&quot;font-size: 11px;&quot;&gt;machineID: 48&lt;/font&gt;&lt;/b&gt;" style="text;html=1;strokeColor=none;fillColor=none;align=center;verticalAlign=middle;whiteSpace=wrap;rounded=0;" vertex="1" parent="1">
          <mxGeometry x="1005" y="545" width="90" height="30" as="geometry" />
        </mxCell>
        <mxCell id="yirKqtg0mQYhuLJ1jX_r-71" value="&lt;b style=&quot;&quot;&gt;&lt;font style=&quot;font-size: 11px;&quot;&gt;machineID: 54&lt;/font&gt;&lt;/b&gt;" style="text;html=1;strokeColor=none;fillColor=none;align=center;verticalAlign=middle;whiteSpace=wrap;rounded=0;" vertex="1" parent="1">
          <mxGeometry x="645" y="645" width="90" height="30" as="geometry" />
        </mxCell>
        <mxCell id="yirKqtg0mQYhuLJ1jX_r-72" value="&lt;b style=&quot;&quot;&gt;&lt;font style=&quot;font-size: 11px;&quot;&gt;machineID: 55&lt;/font&gt;&lt;/b&gt;" style="text;html=1;strokeColor=none;fillColor=none;align=center;verticalAlign=middle;whiteSpace=wrap;rounded=0;" vertex="1" parent="1">
          <mxGeometry x="735" y="645" width="90" height="30" as="geometry" />
        </mxCell>
        <mxCell id="yirKqtg0mQYhuLJ1jX_r-73" value="&lt;b style=&quot;&quot;&gt;&lt;font style=&quot;font-size: 11px;&quot;&gt;machineID: 56&lt;/font&gt;&lt;/b&gt;" style="text;html=1;strokeColor=none;fillColor=none;align=center;verticalAlign=middle;whiteSpace=wrap;rounded=0;" vertex="1" parent="1">
          <mxGeometry x="825" y="645" width="90" height="30" as="geometry" />
        </mxCell>
        <mxCell id="yirKqtg0mQYhuLJ1jX_r-74" value="&lt;b style=&quot;&quot;&gt;&lt;font style=&quot;font-size: 11px;&quot;&gt;machineID: 57&lt;/font&gt;&lt;/b&gt;" style="text;html=1;strokeColor=none;fillColor=none;align=center;verticalAlign=middle;whiteSpace=wrap;rounded=0;" vertex="1" parent="1">
          <mxGeometry x="915" y="645" width="90" height="30" as="geometry" />
        </mxCell>
        <mxCell id="yirKqtg0mQYhuLJ1jX_r-75" value="&lt;b style=&quot;&quot;&gt;&lt;font style=&quot;font-size: 11px;&quot;&gt;machineID: 58&lt;/font&gt;&lt;/b&gt;" style="text;html=1;strokeColor=none;fillColor=none;align=center;verticalAlign=middle;whiteSpace=wrap;rounded=0;" vertex="1" parent="1">
          <mxGeometry x="1005" y="645" width="90" height="30" as="geometry" />
        </mxCell>
        <mxCell id="yirKqtg0mQYhuLJ1jX_r-76" value="&lt;b style=&quot;&quot;&gt;&lt;font style=&quot;font-size: 11px;&quot;&gt;machineID: 49&lt;/font&gt;&lt;/b&gt;" style="text;html=1;strokeColor=none;fillColor=none;align=center;verticalAlign=middle;whiteSpace=wrap;rounded=0;" vertex="1" parent="1">
          <mxGeometry x="45" y="645" width="90" height="30" as="geometry" />
        </mxCell>
        <mxCell id="yirKqtg0mQYhuLJ1jX_r-77" value="&lt;b style=&quot;&quot;&gt;&lt;font style=&quot;font-size: 11px;&quot;&gt;machineID: 50&lt;/font&gt;&lt;/b&gt;" style="text;html=1;strokeColor=none;fillColor=none;align=center;verticalAlign=middle;whiteSpace=wrap;rounded=0;" vertex="1" parent="1">
          <mxGeometry x="135" y="645" width="90" height="30" as="geometry" />
        </mxCell>
        <mxCell id="yirKqtg0mQYhuLJ1jX_r-78" value="&lt;b style=&quot;&quot;&gt;&lt;font style=&quot;font-size: 11px;&quot;&gt;machineID: 51&lt;/font&gt;&lt;/b&gt;" style="text;html=1;strokeColor=none;fillColor=none;align=center;verticalAlign=middle;whiteSpace=wrap;rounded=0;" vertex="1" parent="1">
          <mxGeometry x="225" y="645" width="90" height="30" as="geometry" />
        </mxCell>
        <mxCell id="yirKqtg0mQYhuLJ1jX_r-79" value="&lt;b style=&quot;&quot;&gt;&lt;font style=&quot;font-size: 11px;&quot;&gt;machineID: 52&lt;/font&gt;&lt;/b&gt;" style="text;html=1;strokeColor=none;fillColor=none;align=center;verticalAlign=middle;whiteSpace=wrap;rounded=0;" vertex="1" parent="1">
          <mxGeometry x="315" y="645" width="90" height="30" as="geometry" />
        </mxCell>
        <mxCell id="yirKqtg0mQYhuLJ1jX_r-80" value="&lt;b style=&quot;&quot;&gt;&lt;font style=&quot;font-size: 11px;&quot;&gt;machineID: 53&lt;/font&gt;&lt;/b&gt;" style="text;html=1;strokeColor=none;fillColor=none;align=center;verticalAlign=middle;whiteSpace=wrap;rounded=0;" vertex="1" parent="1">
          <mxGeometry x="405" y="645" width="90" height="30" as="geometry" />
        </mxCell>
        <mxCell id="yirKqtg0mQYhuLJ1jX_r-81" value="&lt;b style=&quot;&quot;&gt;&lt;font style=&quot;font-size: 11px;&quot;&gt;machineID: 59&lt;/font&gt;&lt;/b&gt;" style="text;html=1;strokeColor=none;fillColor=none;align=center;verticalAlign=middle;whiteSpace=wrap;rounded=0;" vertex="1" parent="1">
          <mxGeometry x="45" y="745" width="90" height="30" as="geometry" />
        </mxCell>
        <mxCell id="yirKqtg0mQYhuLJ1jX_r-82" value="&lt;b style=&quot;&quot;&gt;&lt;font style=&quot;font-size: 11px;&quot;&gt;machineID: 60&lt;/font&gt;&lt;/b&gt;" style="text;html=1;strokeColor=none;fillColor=none;align=center;verticalAlign=middle;whiteSpace=wrap;rounded=0;" vertex="1" parent="1">
          <mxGeometry x="135" y="745" width="90" height="30" as="geometry" />
        </mxCell>
        <mxCell id="yirKqtg0mQYhuLJ1jX_r-83" value="&lt;b style=&quot;&quot;&gt;&lt;font style=&quot;font-size: 11px;&quot;&gt;machineID: 61&lt;/font&gt;&lt;/b&gt;" style="text;html=1;strokeColor=none;fillColor=none;align=center;verticalAlign=middle;whiteSpace=wrap;rounded=0;" vertex="1" parent="1">
          <mxGeometry x="225" y="745" width="90" height="30" as="geometry" />
        </mxCell>
        <mxCell id="yirKqtg0mQYhuLJ1jX_r-84" value="&lt;b style=&quot;&quot;&gt;&lt;font style=&quot;font-size: 11px;&quot;&gt;machineID: 62&lt;/font&gt;&lt;/b&gt;" style="text;html=1;strokeColor=none;fillColor=none;align=center;verticalAlign=middle;whiteSpace=wrap;rounded=0;" vertex="1" parent="1">
          <mxGeometry x="315" y="745" width="90" height="30" as="geometry" />
        </mxCell>
        <mxCell id="yirKqtg0mQYhuLJ1jX_r-87" value="&lt;b style=&quot;&quot;&gt;&lt;font style=&quot;font-size: 11px;&quot;&gt;machineID: 63&lt;/font&gt;&lt;/b&gt;" style="text;html=1;strokeColor=none;fillColor=none;align=center;verticalAlign=middle;whiteSpace=wrap;rounded=0;" vertex="1" parent="1">
          <mxGeometry x="735" y="745" width="90" height="30" as="geometry" />
        </mxCell>
        <mxCell id="yirKqtg0mQYhuLJ1jX_r-88" value="&lt;b style=&quot;&quot;&gt;&lt;font style=&quot;font-size: 11px;&quot;&gt;machineID: 64&lt;/font&gt;&lt;/b&gt;" style="text;html=1;strokeColor=none;fillColor=none;align=center;verticalAlign=middle;whiteSpace=wrap;rounded=0;" vertex="1" parent="1">
          <mxGeometry x="825" y="745" width="90" height="30" as="geometry" />
        </mxCell>
        <mxCell id="yirKqtg0mQYhuLJ1jX_r-89" value="&lt;b style=&quot;&quot;&gt;&lt;font style=&quot;font-size: 11px;&quot;&gt;machineID: 65&lt;/font&gt;&lt;/b&gt;" style="text;html=1;strokeColor=none;fillColor=none;align=center;verticalAlign=middle;whiteSpace=wrap;rounded=0;" vertex="1" parent="1">
          <mxGeometry x="915" y="745" width="90" height="30" as="geometry" />
        </mxCell>
        <mxCell id="yirKqtg0mQYhuLJ1jX_r-90" value="&lt;b style=&quot;&quot;&gt;&lt;font style=&quot;font-size: 11px;&quot;&gt;machineID: 66&lt;/font&gt;&lt;/b&gt;" style="text;html=1;strokeColor=none;fillColor=none;align=center;verticalAlign=middle;whiteSpace=wrap;rounded=0;" vertex="1" parent="1">
          <mxGeometry x="1005" y="745" width="90" height="30" as="geometry" />
        </mxCell>
      </root>
    </mxGraphModel>
  </diagram>
</mxfile>
